<svg width="40" height="40" viewBox="0 0 40 40" fill="none" xmlns="http://www.w3.org/2000/svg">
<path d="M20 40C9 40 0 31 0 20C0 9 9 0 20 0C31 0 40 9 40 20C40 31 31 40 20 40ZM20 2C10.1 2 2 10.1 2 20C2 29.9 10.1 38 20 38C29.9 38 38 29.9 38 20C38 10.1 29.9 2 20 2Z" fill="white"/>
<path d="M20.1 28.8C19.8 28.8 19.6 28.7 19.4 28.5C19 28.1 19 27.5 19.4 27.1L26.7 19.8L24.9 18C24.5 17.6 24.5 17 24.9 16.6C25.3 16.2 25.9 16.2 26.3 16.6L28.8 19.1C29.2 19.5 29.2 20.1 28.8 20.5L20.8 28.5C20.6 28.7 20.3 28.8 20.1 28.8Z" fill="white"/>
<path d="M22.1 14.8C21.8 14.8 21.6 14.7 21.4 14.5L19.4 12.5C19 12.1 19 11.5 19.4 11.1C19.8 10.7 20.4 10.7 20.8 11.1L22.8 13.1C23.2 13.5 23.2 14.1 22.8 14.5C22.6 14.7 22.4 14.8 22.1 14.8Z" fill="white"/>
<path d="M14.1 28.8C13.8 28.8 13.6 28.7 13.4 28.5C13 28.1 13 27.5 13.4 27.1L20.7 19.8L13.4 12.5C13 12.1 13 11.5 13.4 11.1C13.8 10.7 14.4 10.7 14.8 11.1L22.8 19.1C23.2 19.5 23.2 20.1 22.8 20.5L14.8 28.5C14.6 28.7 14.4 28.8 14.1 28.8Z" fill="white"/>
</svg>
