<svg width="128" height="128" viewBox="0 0 128 128" fill="none" xmlns="http://www.w3.org/2000/svg">
<g clip-path="url(#clip0)">
<path d="M64 0C51.342 0 38.9683 3.75353 28.4435 10.7859C17.9188 17.8184 9.71575 27.8138 4.87174 39.5083C0.02773 51.2027 -1.23968 64.071 1.22977 76.4858C3.69922 88.9006 9.79463 100.304 18.7452 109.255C27.6958 118.205 39.0995 124.301 51.5143 126.77C63.929 129.24 76.7973 127.972 88.4918 123.128C100.186 118.284 110.182 110.081 117.214 99.5565C124.246 89.0317 128 76.658 128 64C127.982 47.0318 121.233 30.7639 109.234 18.7656C97.2361 6.76732 80.9682 0.0185286 64 0V0ZM64 122C52.5287 122 41.315 118.598 31.777 112.225C22.2389 105.852 14.8049 96.7938 10.415 86.1956C6.02513 75.5975 4.87654 63.9357 7.11448 52.6848C9.35243 41.4339 14.8764 31.0993 22.9878 22.9878C31.0993 14.8764 41.4339 9.3524 52.6848 7.11445C63.9357 4.87651 75.5976 6.0251 86.1957 10.415C96.7938 14.8049 105.852 22.2389 112.225 31.7769C118.598 41.315 122 52.5287 122 64C121.982 79.3769 115.865 94.1186 104.992 104.992C94.1187 115.865 79.3769 121.981 64 122Z" fill="white"/>
<path d="M74.12 35.88C73.5575 35.3182 72.795 35.0027 72 35.0027C71.205 35.0027 70.4425 35.3182 69.88 35.88L43.88 61.88C43.3182 62.4425 43.0027 63.205 43.0027 64C43.0027 64.795 43.3182 65.5575 43.88 66.12L69.88 92.12C70.4487 92.65 71.2009 92.9385 71.9781 92.9247C72.7553 92.911 73.4969 92.5962 74.0465 92.0465C74.5962 91.4969 74.911 90.7553 74.9247 89.9781C74.9385 89.2009 74.65 88.4487 74.12 87.88L50.24 64L74.12 40.12C74.6819 39.5575 74.9974 38.795 74.9974 38C74.9974 37.205 74.6819 36.4425 74.12 35.88V35.88Z" fill="white"/>
</g>
<defs>
<clipPath id="clip0">
<rect width="128" height="128" fill="white"/>
</clipPath>
</defs>
</svg>
